<svg width="92" height="92" viewBox="0 0 92 92" fill="none" xmlns="http://www.w3.org/2000/svg">
<path d="M55.2804 54.019C53.6157 55.4966 51.5355 57.3347 47.763 57.3347H45.5066C44.2148 57.3584 42.9312 57.1241 41.7311 56.6455C40.531 56.1668 39.4384 55.4535 38.5175 54.5473C36.7593 52.7342 35.7916 50.2981 35.8264 47.7728V44.6854C35.7923 42.1611 36.76 39.7261 38.5175 37.9137C39.4384 37.0075 40.531 36.2941 41.7311 35.8155C42.9312 35.3369 44.2148 35.1025 45.5066 35.1263H47.763C51.5382 35.1263 53.6157 36.9616 55.2804 38.4282C57.0112 39.9526 58.5026 41.2844 62.4814 41.2844C63.0888 41.2839 63.6951 41.2352 64.2948 41.1386L64.2783 41.1028C64.0432 40.5111 63.7674 39.9365 63.4528 39.383L60.7919 34.7768C59.5924 32.7003 57.8676 30.9761 55.7907 29.7773C53.7138 28.5784 51.358 27.9473 48.9599 27.9473H43.63C41.232 27.9473 38.8762 28.5784 36.7993 29.7773C34.7224 30.9761 32.9975 32.7003 31.798 34.7768L29.1372 39.383C27.9392 41.4608 27.3086 43.817 27.3086 46.2153C27.3086 48.6137 27.9392 50.9699 29.1372 53.0476L31.798 57.6539C32.9974 59.7307 34.7221 61.4554 36.799 62.6546C38.8759 63.8539 41.2318 64.4856 43.63 64.4862H48.9517C51.3499 64.4856 53.7058 63.8539 55.7827 62.6546C57.8596 61.4554 59.5843 59.7307 60.7837 57.6539L63.4445 53.0532C63.7597 52.5009 64.0355 51.9271 64.27 51.3361L64.2865 51.3031C63.6874 51.202 63.0808 51.1514 62.4732 51.1518C58.4943 51.1518 57.0029 52.4753 55.2722 54.0052" fill="#A89EA9"/>
<path d="M45.3626 37.999H47.6328C53.7234 37.999 53.2417 44.3131 62.4414 44.3131C62.3958 44.7267 62.3958 46.2613 62.3958 45.7498C62.3958 47.2843 62.3958 46.7728 62.4414 48.3074C62.4069 48.3074 62.3985 48.6007 62.4163 48.6849C62.4246 48.6849 62.433 48.6849 62.4414 48.6849C62.4303 48.7174 62.422 48.7119 62.4163 48.6849C53.2454 48.6964 53.7179 54.999 47.6328 54.999H45.3626C41.1877 54.999 38.4414 51.9644 38.4414 48.0769V44.9184C38.4414 41.0336 41.1822 37.999 45.3626 37.999Z" fill="#00786F"/>
<path d="M70.3167 50.8599C68.7603 49.7192 66.9651 48.9467 65.0666 48.6009V48.6476C64.9015 49.5568 64.6461 50.4472 64.3044 51.3057C65.8722 51.5495 67.3595 52.1625 68.6437 53.0943C68.6462 53.1079 68.6462 53.1219 68.6437 53.1355C67.7379 56.0744 66.2617 58.806 64.2997 61.174C62.3376 63.5421 59.9281 65.5003 57.2089 66.9367C54.4897 68.3732 51.514 69.2596 48.452 69.5454C45.39 69.8312 42.3017 69.5108 39.3636 68.6025C36.4258 67.6955 33.6954 66.2185 31.3285 64.256C28.9616 62.2934 27.0046 59.8838 25.5693 57.1646C24.1339 54.4455 23.2484 51.4703 22.9633 48.4088C22.6782 45.3474 22.9992 42.2597 23.9077 39.3224C24.8132 36.3847 26.2888 33.6544 28.2503 31.2875C30.2117 28.9207 32.6205 26.9637 35.3389 25.5284C38.0573 24.0932 41.0319 23.208 44.0927 22.9232C47.1535 22.6385 50.2404 22.96 53.1768 23.8692C56.8187 24.9902 60.1315 26.984 62.8271 29.6772C65.5227 32.3705 67.5195 35.6815 68.6437 39.3224C68.6412 39.3369 68.6412 39.3518 68.6437 39.3664C67.3598 40.2976 65.8721 40.9088 64.3044 41.1494C64.6457 42.01 64.901 42.9022 65.0666 43.813C65.0639 43.8276 65.0639 43.8425 65.0666 43.857C66.9645 43.5109 68.7595 42.7395 70.3167 41.6007C71.8136 40.5001 71.5219 39.2398 71.2963 38.4996C69.2453 31.8522 64.638 26.2915 58.4876 23.0407C52.3373 19.7898 45.1475 19.1149 38.4996 21.1643C31.8522 23.2153 26.2915 27.8227 23.0407 33.973C19.7898 40.1234 19.1149 47.3131 21.1643 53.961C23.2147 60.6089 27.8219 66.17 33.9725 69.421C40.123 72.672 47.3131 73.3465 53.961 71.2963C58.0438 70.0371 61.7573 67.7996 64.7784 64.7785C67.7996 61.7573 70.0371 58.0438 71.2963 53.961C71.5219 53.2208 71.8136 51.9689 70.3167 50.8627" fill="#00786F"/>
</svg>
